PathFileType	4	(X/Y/Z)	/Users/itak/Documents/Research/Walk-IL/dataset/trc/00507_00183.trc
DataRate	CameraRate	NumFrames	NumMarkers	Units	OrigDataRate	OrigDataStartFrame	OrigNumFrames
100.000000	100.000000	4	53	mm	100.000000	127	341
Frame#	Time	RPSI			LPSI			L3			STRN			T10			C7			CLAV			RBAK			LBAK			LSHO			LUPA			LAEL			LAOL			LWTS			LWPS			LFRA			LIFD			LHPS			LHTS			RSHO			RUPA			RAEL			RAOL			RWTS			RWPS			RFRA			RIFD			RHTS			RHPS			RBHD			LFHD			RFHD			LBHD			LHIP			RASI			LASI			LKNE			LTHI			LANK			LTIP			LTOE			LMT1			LMT5			LHEE			RKNE			RTHI			RANK			RTIP			RTOE			RMT1			RMT5			RHEE			RHIP			
		X1	Y1	Z1	X2	Y2	Z2	X3	Y3	Z3	X4	Y4	Z4	X5	Y5	Z5	X6	Y6	Z6	X7	Y7	Z7	X8	Y8	Z8	X9	Y9	Z9	X10	Y10	Z10	X11	Y11	Z11	X12	Y12	Z12	X13	Y13	Z13	X14	Y14	Z14	X15	Y15	Z15	X16	Y16	Z16	X17	Y17	Z17	X18	Y18	Z18	X19	Y19	Z19	X20	Y20	Z20	X21	Y21	Z21	X22	Y22	Z22	X23	Y23	Z23	X24	Y24	Z24	X25	Y25	Z25	X26	Y26	Z26	X27	Y27	Z27	X28	Y28	Z28	X29	Y29	Z29	X30	Y30	Z30	X31	Y31	Z31	X32	Y32	Z32	X33	Y33	Z33	X34	Y34	Z34	X35	Y35	Z35	X36	Y36	Z36	X37	Y37	Z37	X38	Y38	Z38	X39	Y39	Z39	X40	Y40	Z40	X41	Y41	Z41	X42	Y42	Z42	X43	Y43	Z43	X44	Y44	Z44	X45	Y45	Z45	X46	Y46	Z46	X47	Y47	Z47	X48	Y48	Z48	X49	Y49	Z49	X50	Y50	Z50	X51	Y51	Z51	X52	Y52	Z52	X53	Y53	Z53	

128	1.27	-617.0267333984375	922.9921264648438	-199.2222900390625	-563.3684692382812	917.0750732421875	-310.7063293457031	-570.46240234375	1005.635925292969	-270.6593933105469	-335.2479248046875	1095.248046875	-138.6848297119141	-543.7892456054688	1104.959106445312	-272.8962097167969	-455.7933959960938	1312.424438476562	-218.1974487304688	-346.6695556640625	1197.213989257812	-142.1866912841797	-572.9107055664062	1212.699340820312	-199.3165740966797	-432.6378784179688	1266.017944335938	-311.2122802734375	-301.8584899902344	1288.0703125	-305.0207214355469	-291.6842346191406	1163.849731445312	-371.8168029785156	-298.1277160644531	986.2818603515625	-385.5870361328125	-391.6611938476562	952.9789428710938	-410.646728515625	-234.4133605957031	941.423095703125	-201.6134033203125	-236.1878051757812	853.2963256835938	-235.5843048095703	-270.0555114746094	951.12744140625	-336.1285400390625	-201.0167999267578	841.5946044921875	-88.21085357666016	-206.0735473632812	836.1378784179688	-191.316162109375	-189.2552490234375	890.1975708007812	-157.595458984375	-498.0454711914062	1285.931274414062	-64.43920135498047	-562.7080688476562	1235.002807617188	-43.48286819458008	-695.630859375	1015.182800292969	-95.38437652587891	-700.656494140625	1005.481750488281	-161.6144561767578	-604.1620483398438	827.794677734375	-14.80282783508301	-689.4459838867188	806.43017578125	-34.92705535888672	-702.5845947265625	965.491943359375	-87.29024505615234	-617.0548095703125	667.0661010742188	8.340450286865234	-618.6065063476562	736.9043579101562	24.09170722961426	-682.8115234375	738.841552734375	-7.55239200592041	-496.9278564453125	1431.100708007812	-138.9987945556641	-339.0101318359375	1521.234619140625	-222.437744140625	-402.4560852050781	1527.5458984375	-112.3740997314453	-428.0494995117188	1413.58154296875	-282.2203063964844	-429.5749206542969	820.0565185546875	-393.236083984375	-459.3460083007812	843.4459838867188	-72.46651458740234	-365.013916015625	839.3798828125	-293.5099792480469	-440.0028991699219	392.5670776367188	-382.885986328125	-419.4326477050781	551.7250366210938	-380.3972473144531	-797.216552734375	229.3259887695312	-573.0445556640625	-545.3807983398438	320.3770446777344	-450.7232666015625	-802.0414428710938	41.49907302856445	-508.4295043945312	-816.3075561523438	112.8971099853516	-480.8743286132812	-795.29296875	119.1962966918945	-583.82470703125	-820.39111328125	272.7466430664062	-515.4340209960938	-469.4776306152344	432.7877502441406	-107.7347412109375	-537.8991088867188	680.6044311523438	-41.32593536376953	-661.7808227539062	91.62654876708984	-288.0028991699219	-488.7796936035156	298.12353515625	-151.2271423339844	-487.9923095703125	41.5401496887207	-213.9378051757812	-511.4115600585938	53.6644172668457	-282.475830078125	-583.8184814453125	52.9507942199707	-217.4294891357422	-679.5001831054688	108.6543045043945	-355.4356689453125	-576.0556030273438	812.5369873046875	-43.63880920410156	
129	1.28	-606.4306640625	918.3914184570312	-194.6295166015625	-553.3577880859375	911.2462768554688	-306.4258422851562	-558.8150024414062	1000.656311035156	-263.7839965820312	-323.6622619628906	1090.2548828125	-132.3212280273438	-532.51318359375	1100.752807617188	-263.9222717285156	-443.2569580078125	1308.817138671875	-208.6397705078125	-334.2631225585938	1192.188720703125	-135.1272277832031	-559.9818115234375	1208.20654296875	-188.6979675292969	-421.71630859375	1262.37158203125	-302.3863525390625	-290.6009826660156	1283.401123046875	-298.2445068359375	-283.4424438476562	1159.554809570312	-366.2664794921875	-292.8172607421875	981.3927612304688	-383.8340148925781	-387.9127502441406	951.5873413085938	-406.898681640625	-224.4238891601562	925.7520141601562	-204.1492614746094	-230.6075592041016	840.0358276367188	-242.8003387451172	-264.3004150390625	942.6591186523438	-336.7498779296875	-192.5699615478516	817.715087890625	-98.63046264648438	-200.3016967773438	819.1727294921875	-200.8811645507812	-180.1005096435547	870.2215576171875	-164.6187896728516	-484.2634582519531	1281.56201171875	-54.67455673217773	-548.6080322265625	1229.143676757812	-32.41953659057617	-677.6754760742188	1005.219909667969	-76.38320159912109	-686.26171875	995.0115966796875	-142.2857513427734	-574.964599609375	824.5640869140625	1.463240385055542	-660.7403564453125	799.4295654296875	-12.04651260375977	-682.410400390625	956.0765991210938	-67.27445220947266	-579.1893920898438	664.255615234375	28.6953239440918	-582.7703857421875	734.154052734375	42.79574966430664	-649.213623046875	732.6885986328125	15.86781024932861	-482.5487365722656	1427.134521484375	-129.4882659912109	-324.9124450683594	1517.306396484375	-213.3364868164062	-387.98876953125	1523.537841796875	-103.0550003051758	-414.1743774414062	1409.801513671875	-272.9428100585938	-417.8460083007812	814.638427734375	-386.6111755371094	-450.0092468261719	840.6939086914062	-65.45396423339844	-354.8677062988281	835.6919555664062	-286.7141723632812	-410.5309753417969	388.934326171875	-368.67041015625	-398.3143310546875	547.97021484375	-369.7003479003906	-768.63671875	237.4114990234375	-562.18701171875	-515.1946411132812	319.7418823242188	-437.18701171875	-775.536865234375	46.52188873291016	-501.9323120117188	-789.1878662109375	118.5975112915039	-472.6602172851562	-767.4409790039062	127.4303131103516	-575.2078857421875	-792.2435913085938	279.6671752929688	-503.865478515625	-463.4487915039062	428.7651672363281	-104.9073791503906	-530.190673828125	676.852294921875	-36.82938385009766	-661.1819458007812	92.21942138671875	-288.4727478027344	-483.8763427734375	294.5428771972656	-150.5520477294922	-487.9667663574219	41.52765274047852	-213.9385223388672	-511.1092529296875	53.62110137939453	-282.7698364257812	-583.4303588867188	53.111328125	-217.7196197509766	-679.0405883789062	109.4939193725586	-355.8418884277344	-567.86181640625	809.220703125	-38.48333358764648	
130	1.29	-595.8177490234375	914.1128540039062	-190.5159301757812	-543.0567016601562	905.684326171875	-302.4520263671875	-546.6907348632812	995.6427612304688	-257.0484924316406	-312.0827941894531	1085.75048828125	-126.0793685913086	-521.2556762695312	1096.743408203125	-254.8417053222656	-430.8692626953125	1305.548461914062	-199.1868286132812	-321.9304504394531	1187.630737304688	-128.2288055419922	-547.0032348632812	1203.87939453125	-177.8480834960938	-411.1226806640625	1259.07470703125	-293.6343078613281	-279.7594299316406	1279.141967773438	-291.7654113769531	-275.7877197265625	1155.780029296875	-361.0324401855469	-288.2891235351562	977.1187744140625	-382.6035461425781	-384.8822937011719	950.8106079101562	-403.2122192382812	-215.099365234375	910.6011962890625	-208.0385284423828	-225.7414398193359	827.8139038085938	-251.3899536132812	-259.3699340820312	934.8789672851562	-338.1641540527344	-184.8450012207031	794.8233032226562	-111.4327545166016	-195.1215972900391	803.3284912109375	-212.3254852294922	-171.5137481689453	851.037109375	-173.7042388916016	-470.4821166992188	1277.569458007812	-44.92668533325195	-534.3700561523438	1223.585571289062	-21.38943099975586	-658.67333984375	995.3080444335938	-56.8941535949707	-670.6904907226562	984.2699584960938	-122.1697235107422	-544.6071166992188	822.0776977539062	17.74319267272949	-630.1300659179688	792.9354858398438	10.69045066833496	-661.0026245117188	946.6426391601562	-46.87604904174805	-539.3110961914062	662.6347045898438	48.36729431152344	-545.3887939453125	732.424072265625	61.0004997253418	-613.4840698242188	727.2825927734375	38.80240249633789	-468.0599975585938	1423.600219726562	-119.9544219970703	-310.5988464355469	1513.722900390625	-204.0955200195312	-373.2882080078125	1519.81201171875	-93.59455871582031	-400.1925964355469	1406.570190429688	-263.700927734375	-405.6434936523438	809.6964721679688	-379.9486999511719	-440.7258605957031	838.4345703125	-58.35044860839844	-344.5414428710938	832.4270629882812	-279.7812194824219	-380.5044555664062	386.9093627929688	-353.4543762207031	-376.6545715332031	545.3107299804688	-358.5112915039062	-738.4102172851562	244.3634490966797	-550.3571166992188	-484.1282043457031	320.0344848632812	-422.5272521972656	-745.27880859375	51.64502716064453	-493.2046813964844	-759.5465698242188	123.7412261962891	-462.8059997558594	-736.3937377929688	134.6328735351562	-564.8529052734375	-763.3088989257812	285.5391540527344	-491.852294921875	-457.6665954589844	424.9582214355469	-101.7024765014648	-522.4497680664062	673.5276489257812	-32.21614837646484	-660.283203125	93.01646423339844	-289.0312194824219	-479.2563171386719	291.2692260742188	-149.6876831054688	-487.8333129882812	41.47625732421875	-213.9013671875	-510.5955200195312	53.57479858398438	-282.985595703125	-582.8690185546875	53.27783203125	-218.0365295410156	-678.1386108398438	110.6256637573242	-356.3641357421875	-559.6775512695312	806.341796875	-33.48287963867188	
131	1.3	-585.0494384765625	910.390869140625	-186.5970916748047	-532.3115844726562	900.7750854492188	-298.514404296875	-534.3323364257812	991.0133056640625	-250.3908843994141	-300.4013671875	1081.94287109375	-119.889892578125	-510.0623168945312	1093.154907226562	-245.5959930419922	-418.6161499023438	1302.770874023438	-189.8676452636719	-309.6491088867188	1183.74462890625	-121.4709854125977	-534.031982421875	1199.906982421875	-166.7292785644531	-400.8528747558594	1256.26904296875	-284.9190673828125	-269.3663024902344	1275.49267578125	-285.5648498535156	-268.7348937988281	1152.76025390625	-356.1080932617188	-284.5376892089844	973.75830078125	-381.8777160644531	-382.4959411621094	950.8631591796875	-399.5551147460938	-206.5418548583984	896.5933227539062	-213.1940612792969	-221.5903167724609	817.1554565429688	-261.115478515625	-255.2587585449219	928.1989135742188	-340.3024291992188	-178.0656280517578	773.9170532226562	-126.2038650512695	-190.5249633789062	789.2681274414062	-225.3197174072266	-163.6072998046875	833.415283203125	-184.6125946044922	-456.6537780761719	1274.121948242188	-35.194580078125	-519.931640625	1218.578857421875	-10.36597061157227	-638.5132446289062	985.8446655273438	-37.0820198059082	-653.7628173828125	973.6361083984375	-101.4312896728516	-513.1890258789062	820.6221313476562	33.86494445800781	-597.7080688476562	787.3235473632812	33.00177764892578	-638.2794189453125	937.6031494140625	-26.26315498352051	-497.7784729003906	662.5525512695312	67.19309234619141	-506.7040100097656	732.0641479492188	78.5216064453125	-575.8577880859375	723.0489501953125	61.00786972045898	-453.4864196777344	1420.665893554688	-110.4149932861328	-296.0605773925781	1510.604370117188	-194.7196655273438	-358.3502197265625	1516.498901367188	-84.00164794921875	-386.117431640625	1404.02880859375	-254.5032348632812	-392.9236450195312	805.5730590820312	-373.20263671875	-431.3598327636719	836.6229858398438	-51.15792083740234	-333.8920593261719	829.8115844726562	-272.6208801269531	-350.0822143554688	386.6470031738281	-337.2899169921875	-354.4974670410156	543.9739379882812	-346.815673828125	-706.7534790039062	250.0389404296875	-537.5250244140625	-452.3578186035156	321.3102416992188	-406.7517700195312	-711.6773681640625	56.44396591186523	-482.2484436035156	-727.6380004882812	128.1198272705078	-451.3095703125	-702.5819702148438	140.6588134765625	-552.7603759765625	-733.6141967773438	290.2450866699219	-479.31982421875	-452.299560546875	421.3569030761719	-98.30604553222656	-514.5374755859375	670.5990600585938	-27.46700286865234	-659.204833984375	93.94664764404297	-289.6576538085938	-475.1603088378906	288.3233947753906	-148.7055206298828	-487.6648864746094	41.41632843017578	-213.8523864746094	-509.9711608886719	53.52549362182617	-283.1411437988281	-582.22705078125	53.43115615844727	-218.3724365234375	-676.9368896484375	111.9593276977539	-356.9850158691406	-551.2832641601562	803.8919677734375	-28.52847480773926	
